<svg width="34" height="34" viewBox="0 0 34 34" fill="none" xmlns="http://www.w3.org/2000/svg">
<path d="M0 17.8528V29.7547C0 31.7233 1.60199 33.3253 3.57056 33.3253H7.14113V14.2823H3.57056C1.60199 14.2823 0 15.8843 0 17.8528ZM32.3041 13.8419C31.8642 13.2374 31.2868 12.7462 30.6196 12.4088C29.9524 12.0715 29.2145 11.8977 28.4669 11.9019H20.2951L21.3996 6.37942C21.5546 5.60568 21.5359 4.80719 21.3449 4.04155C21.1539 3.2759 20.7953 2.5622 20.2951 1.95192C19.7962 1.34059 19.1672 0.848184 18.454 0.510531C17.7408 0.172879 16.9614 -0.00152536 16.1723 1.00506e-05C15.1154 1.00506e-05 14.1751 0.709362 13.9085 1.64961L12.804 4.71077C11.9414 7.0963 10.8425 9.38968 9.52388 11.5567V33.3253H24.7512C25.7668 33.329 26.7567 33.0061 27.5749 32.4044C28.3931 31.8026 28.9962 30.9538 29.2953 29.9832L33.0134 18.0813C33.2398 17.3691 33.2935 16.6132 33.1702 15.876C33.0469 15.1389 32.75 14.4417 32.3041 13.8419Z" fill="white"/>
</svg>
